<?xml version="1.0" encoding="UTF-8" standalone="no"?>
<!DOCTYPE svg PUBLIC "-//W3C//DTD SVG 1.1//EN"
 "http://www.w3.org/Graphics/SVG/1.1/DTD/svg11.dtd">
<!-- Generated by graphviz version 2.43.0 (0)
 -->
<!-- Title: mygraph Pages: 1 -->
<svg width="406pt" height="190pt"
 viewBox="0.00 0.00 406.00 190.00" xmlns="http://www.w3.org/2000/svg" xmlns:xlink="http://www.w3.org/1999/xlink">
<g id="graph0" class="graph" transform="scale(1 1) rotate(0) translate(4 186)">
<title>mygraph</title>
<polygon fill="white" stroke="transparent" points="-4,4 -4,-186 402,-186 402,4 -4,4"/>
<!-- //main:hello&#45;world -->
<g id="node1" class="node">
<title>//main:hello&#45;world</title>
<polygon fill="none" stroke="black" points="266.5,-182 147.5,-182 147.5,-146 266.5,-146 266.5,-182"/>
<text text-anchor="middle" x="207" y="-160.3" font-family="Times,serif" font-size="14.00">//main:hello&#45;world</text>
</g>
<!-- //main:hello&#45;greet -->
<g id="node2" class="node">
<title>//main:hello&#45;greet</title>
<polygon fill="none" stroke="black" points="122,-110 8,-110 8,-74 122,-74 122,-110"/>
<text text-anchor="middle" x="65" y="-88.3" font-family="Times,serif" font-size="14.00">//main:hello&#45;greet</text>
</g>
<!-- //main:hello&#45;world&#45;&gt;//main:hello&#45;greet -->
<g id="edge1" class="edge">
<title>//main:hello&#45;world&#45;&gt;//main:hello&#45;greet</title>
<path fill="none" stroke="black" d="M172.26,-145.88C153.18,-136.47 129.32,-124.71 108.95,-114.67"/>
<polygon fill="black" stroke="black" points="110.39,-111.47 99.87,-110.19 107.29,-117.75 110.39,-111.47"/>
</g>
<!-- //main:hello&#45;world.cc -->
<g id="node3" class="node">
<title>//main:hello&#45;world.cc</title>
<polygon fill="none" stroke="black" points="274,-110 140,-110 140,-74 274,-74 274,-110"/>
<text text-anchor="middle" x="207" y="-88.3" font-family="Times,serif" font-size="14.00">//main:hello&#45;world.cc</text>
</g>
<!-- //main:hello&#45;world&#45;&gt;//main:hello&#45;world.cc -->
<g id="edge2" class="edge">
<title>//main:hello&#45;world&#45;&gt;//main:hello&#45;world.cc</title>
<path fill="none" stroke="black" d="M207,-145.7C207,-137.98 207,-128.71 207,-120.11"/>
<polygon fill="black" stroke="black" points="210.5,-120.1 207,-110.1 203.5,-120.1 210.5,-120.1"/>
</g>
<!-- //lib:hello&#45;time -->
<g id="node4" class="node">
<title>//lib:hello&#45;time</title>
<polygon fill="none" stroke="black" points="390,-110 292,-110 292,-74 390,-74 390,-110"/>
<text text-anchor="middle" x="341" y="-88.3" font-family="Times,serif" font-size="14.00">//lib:hello&#45;time</text>
</g>
<!-- //main:hello&#45;world&#45;&gt;//lib:hello&#45;time -->
<g id="edge3" class="edge">
<title>//main:hello&#45;world&#45;&gt;//lib:hello&#45;time</title>
<path fill="none" stroke="black" d="M239.78,-145.88C257.63,-136.55 279.9,-124.92 299,-114.94"/>
<polygon fill="black" stroke="black" points="300.85,-117.92 308.09,-110.19 297.61,-111.72 300.85,-117.92"/>
</g>
<!-- //main:hello&#45;greet.cc\n//main:hello&#45;greet.h -->
<g id="node5" class="node">
<title>//main:hello&#45;greet.cc\n//main:hello&#45;greet.h</title>
<polygon fill="none" stroke="black" points="130,-38 0,-38 0,0 130,0 130,-38"/>
<text text-anchor="middle" x="65" y="-22.8" font-family="Times,serif" font-size="14.00">//main:hello&#45;greet.cc</text>
<text text-anchor="middle" x="65" y="-7.8" font-family="Times,serif" font-size="14.00">//main:hello&#45;greet.h</text>
</g>
<!-- //main:hello&#45;greet&#45;&gt;//main:hello&#45;greet.cc\n//main:hello&#45;greet.h -->
<g id="edge4" class="edge">
<title>//main:hello&#45;greet&#45;&gt;//main:hello&#45;greet.cc\n//main:hello&#45;greet.h</title>
<path fill="none" stroke="black" d="M65,-73.81C65,-66.11 65,-56.82 65,-48.15"/>
<polygon fill="black" stroke="black" points="68.5,-48.02 65,-38.02 61.5,-48.02 68.5,-48.02"/>
</g>
<!-- //lib:hello&#45;time.cc\n//lib:hello&#45;time.h -->
<g id="node6" class="node">
<title>//lib:hello&#45;time.cc\n//lib:hello&#45;time.h</title>
<polygon fill="none" stroke="black" points="398,-38 284,-38 284,0 398,0 398,-38"/>
<text text-anchor="middle" x="341" y="-22.8" font-family="Times,serif" font-size="14.00">//lib:hello&#45;time.cc</text>
<text text-anchor="middle" x="341" y="-7.8" font-family="Times,serif" font-size="14.00">//lib:hello&#45;time.h</text>
</g>
<!-- //lib:hello&#45;time&#45;&gt;//lib:hello&#45;time.cc\n//lib:hello&#45;time.h -->
<g id="edge5" class="edge">
<title>//lib:hello&#45;time&#45;&gt;//lib:hello&#45;time.cc\n//lib:hello&#45;time.h</title>
<path fill="none" stroke="black" d="M341,-73.81C341,-66.11 341,-56.82 341,-48.15"/>
<polygon fill="black" stroke="black" points="344.5,-48.02 341,-38.02 337.5,-48.02 344.5,-48.02"/>
</g>
</g>
</svg>
