<?xml version="1.0" encoding="UTF-8" standalone="no"?>
<!DOCTYPE svg PUBLIC "-//W3C//DTD SVG 1.1//EN"
 "http://www.w3.org/Graphics/SVG/1.1/DTD/svg11.dtd">
<!-- Generated by graphviz version 2.43.0 (0)
 -->
<!-- Title: mygraph Pages: 1 -->
<svg width="282pt" height="190pt"
 viewBox="0.00 0.00 282.00 190.00" xmlns="http://www.w3.org/2000/svg" xmlns:xlink="http://www.w3.org/1999/xlink">
<g id="graph0" class="graph" transform="scale(1 1) rotate(0) translate(4 186)">
<title>mygraph</title>
<polygon fill="white" stroke="transparent" points="-4,4 -4,-186 278,-186 278,4 -4,4"/>
<!-- //main:hello&#45;world -->
<g id="node1" class="node">
<title>//main:hello&#45;world</title>
<polygon fill="none" stroke="black" points="195.5,-182 76.5,-182 76.5,-146 195.5,-146 195.5,-182"/>
<text text-anchor="middle" x="136" y="-160.3" font-family="Times,serif" font-size="14.00">//main:hello&#45;world</text>
</g>
<!-- //main:hello&#45;greet -->
<g id="node2" class="node">
<title>//main:hello&#45;greet</title>
<polygon fill="none" stroke="black" points="122,-110 8,-110 8,-74 122,-74 122,-110"/>
<text text-anchor="middle" x="65" y="-88.3" font-family="Times,serif" font-size="14.00">//main:hello&#45;greet</text>
</g>
<!-- //main:hello&#45;world&#45;&gt;//main:hello&#45;greet -->
<g id="edge1" class="edge">
<title>//main:hello&#45;world&#45;&gt;//main:hello&#45;greet</title>
<path fill="none" stroke="black" d="M118.45,-145.7C109.77,-137.14 99.14,-126.66 89.65,-117.3"/>
<polygon fill="black" stroke="black" points="91.93,-114.63 82.35,-110.1 87.01,-119.62 91.93,-114.63"/>
</g>
<!-- //main:hello&#45;world.cc -->
<g id="node3" class="node">
<title>//main:hello&#45;world.cc</title>
<polygon fill="none" stroke="black" points="274,-110 140,-110 140,-74 274,-74 274,-110"/>
<text text-anchor="middle" x="207" y="-88.3" font-family="Times,serif" font-size="14.00">//main:hello&#45;world.cc</text>
</g>
<!-- //main:hello&#45;world&#45;&gt;//main:hello&#45;world.cc -->
<g id="edge2" class="edge">
<title>//main:hello&#45;world&#45;&gt;//main:hello&#45;world.cc</title>
<path fill="none" stroke="black" d="M153.55,-145.7C162.23,-137.14 172.86,-126.66 182.35,-117.3"/>
<polygon fill="black" stroke="black" points="184.99,-119.62 189.65,-110.1 180.07,-114.63 184.99,-119.62"/>
</g>
<!-- //main:hello&#45;greet.h\n//main:hello&#45;greet.cc -->
<g id="node4" class="node">
<title>//main:hello&#45;greet.h\n//main:hello&#45;greet.cc</title>
<polygon fill="none" stroke="black" points="130,-38 0,-38 0,0 130,0 130,-38"/>
<text text-anchor="middle" x="65" y="-22.8" font-family="Times,serif" font-size="14.00">//main:hello&#45;greet.h</text>
<text text-anchor="middle" x="65" y="-7.8" font-family="Times,serif" font-size="14.00">//main:hello&#45;greet.cc</text>
</g>
<!-- //main:hello&#45;greet&#45;&gt;//main:hello&#45;greet.h\n//main:hello&#45;greet.cc -->
<g id="edge3" class="edge">
<title>//main:hello&#45;greet&#45;&gt;//main:hello&#45;greet.h\n//main:hello&#45;greet.cc</title>
<path fill="none" stroke="black" d="M65,-73.81C65,-66.11 65,-56.82 65,-48.15"/>
<polygon fill="black" stroke="black" points="68.5,-48.02 65,-38.02 61.5,-48.02 68.5,-48.02"/>
</g>
</g>
</svg>
