<?xml version="1.0" encoding="UTF-8" standalone="no"?>
<!DOCTYPE svg PUBLIC "-//W3C//DTD SVG 1.1//EN"
 "http://www.w3.org/Graphics/SVG/1.1/DTD/svg11.dtd">
<!-- Generated by graphviz version 2.43.0 (0)
 -->
<!-- Title: mygraph Pages: 1 -->
<svg width="276pt" height="190pt"
 viewBox="0.00 0.00 276.00 190.00" xmlns="http://www.w3.org/2000/svg" xmlns:xlink="http://www.w3.org/1999/xlink">
<g id="graph0" class="graph" transform="scale(1 1) rotate(0) translate(4 186)">
<title>mygraph</title>
<polygon fill="white" stroke="transparent" points="-4,4 -4,-186 272,-186 272,4 -4,4"/>
<!-- //code/00:main -->
<g id="node1" class="node">
<title>//code/00:main</title>
<polygon fill="none" stroke="black" points="175,-182 77,-182 77,-146 175,-146 175,-182"/>
<text text-anchor="middle" x="126" y="-160.3" font-family="Times,serif" font-size="14.00">//code/00:main</text>
</g>
<!-- //code/00:main.cc -->
<g id="node2" class="node">
<title>//code/00:main.cc</title>
<polygon fill="none" stroke="black" points="114,-110 0,-110 0,-74 114,-74 114,-110"/>
<text text-anchor="middle" x="57" y="-88.3" font-family="Times,serif" font-size="14.00">//code/00:main.cc</text>
</g>
<!-- //code/00:main&#45;&gt;//code/00:main.cc -->
<g id="edge1" class="edge">
<title>//code/00:main&#45;&gt;//code/00:main.cc</title>
<path fill="none" stroke="black" d="M108.94,-145.7C100.5,-137.14 90.18,-126.66 80.96,-117.3"/>
<polygon fill="black" stroke="black" points="83.37,-114.77 73.86,-110.1 78.39,-119.68 83.37,-114.77"/>
</g>
<!-- //code/00/greet:greet -->
<g id="node3" class="node">
<title>//code/00/greet:greet</title>
<polygon fill="none" stroke="black" points="260,-110 132,-110 132,-74 260,-74 260,-110"/>
<text text-anchor="middle" x="196" y="-88.3" font-family="Times,serif" font-size="14.00">//code/00/greet:greet</text>
</g>
<!-- //code/00:main&#45;&gt;//code/00/greet:greet -->
<g id="edge2" class="edge">
<title>//code/00:main&#45;&gt;//code/00/greet:greet</title>
<path fill="none" stroke="black" d="M143.3,-145.7C151.86,-137.14 162.34,-126.66 171.7,-117.3"/>
<polygon fill="black" stroke="black" points="174.3,-119.65 178.9,-110.1 169.35,-114.7 174.3,-119.65"/>
</g>
<!-- //code/00/greet:greet.h\n//code/00/greet:greet.cc -->
<g id="node4" class="node">
<title>//code/00/greet:greet.h\n//code/00/greet:greet.cc</title>
<polygon fill="none" stroke="black" points="268,-38 124,-38 124,0 268,0 268,-38"/>
<text text-anchor="middle" x="196" y="-22.8" font-family="Times,serif" font-size="14.00">//code/00/greet:greet.h</text>
<text text-anchor="middle" x="196" y="-7.8" font-family="Times,serif" font-size="14.00">//code/00/greet:greet.cc</text>
</g>
<!-- //code/00/greet:greet&#45;&gt;//code/00/greet:greet.h\n//code/00/greet:greet.cc -->
<g id="edge3" class="edge">
<title>//code/00/greet:greet&#45;&gt;//code/00/greet:greet.h\n//code/00/greet:greet.cc</title>
<path fill="none" stroke="black" d="M196,-73.81C196,-66.11 196,-56.82 196,-48.15"/>
<polygon fill="black" stroke="black" points="199.5,-48.02 196,-38.02 192.5,-48.02 199.5,-48.02"/>
</g>
</g>
</svg>
